<?xml version="1.0" encoding="UTF-8" standalone="no"?>
<svg
   version="1.0"
   width="42.4434mm"
   height="37.236398mm"
   id="svg6"
   sodipodi:docname="1.31.wmf"
   xmlns:inkscape="http://www.inkscape.org/namespaces/inkscape"
   xmlns:sodipodi="http://sodipodi.sourceforge.net/DTD/sodipodi-0.dtd"
   xmlns="http://www.w3.org/2000/svg"
   xmlns:svg="http://www.w3.org/2000/svg">
  <sodipodi:namedview
     id="namedview6"
     pagecolor="#ffffff"
     bordercolor="#000000"
     borderopacity="0.25"
     inkscape:showpageshadow="2"
     inkscape:pageopacity="0.0"
     inkscape:pagecheckerboard="0"
     inkscape:deskcolor="#d1d1d1"
     inkscape:document-units="mm" />
  <defs
     id="defs1">
    <pattern
       id="WMFhbasepattern"
       patternUnits="userSpaceOnUse"
       width="6"
       height="6"
       x="0"
       y="0" />
  </defs>
  <path
     style="fill:#dd3f32;fill-rule:evenodd;fill-opacity:1;stroke:none;"
     d="  M 6.62322,140.64   L 153.69678,140.64   L 154.16772,140.61995   L 154.62864,140.57986   L 155.07954,140.49967   L 155.5104,140.39944   L 155.93124,140.25911   L 156.33204,140.09873   L 156.72282,139.91831   L 157.09356,139.70781   L 157.45428,139.47727   L 157.79496,139.22668   L 158.1156,138.95605   L 158.4162,138.66537   L 158.69676,138.35464   L 158.9673,138.03388   L 159.20778,137.69309   L 159.42822,137.33224   L 159.6186,136.97139   L 159.79896,136.5905   L 159.94926,136.19958   L 160.0695,135.79864   L 160.1697,135.38768   L 160.24986,134.97671   L 160.29996,134.55572   L 160.32,134.13474   L 160.30998,133.70372   L 160.27992,133.27271   L 160.20978,132.8417   L 160.1196,132.41069   L 159.98934,131.9897   L 159.83904,131.55869   L 159.64866,131.1377   L 159.42822,130.71672   L 85.88142,3.3077614   L 85.63092,2.9068206   L 85.36038,2.5359504   L 85.0698,2.1851272   L 84.7692,1.8643746   L 84.43854,1.563669   L 84.09786,1.293034   L 83.74716,1.042446   L 83.37642,0.83195211   L 82.99566,0.63148172   L 82.6149,0.47110541   L 82.2141,0.32075262   L 81.8133,0.21049391   L 81.40248,0.12028223   L 80.99166,0.050117597   L 80.58084,0.010023519   L 80.16,0   L 79.73916,0.010023519   L 79.32834,0.050117597   L 78.91752,0.12028223   L 78.5067,0.21049391   L 78.1059,0.32075262   L 77.7051,0.47110541   L 77.31432,0.63148172   L 76.94358,0.83195211   L 76.57284,1.042446   L 76.22214,1.293034   L 75.88146,1.563669   L 75.5508,1.8643746   L 75.2502,2.1851272   L 74.95962,2.5359504   L 74.68908,2.9068206   L 74.43858,3.3077614   L 0.89178,130.71672   L 0.67134,131.1377   L 0.48096,131.55869   L 0.32064,131.9897   L 0.2004,132.41069   L 0.11022,132.8417   L 0.04008,133.27271   L 0.01002,133.70372   L 0,134.13474   L 0.02004,134.55572   L 0.07014,134.97671   L 0.14028,135.38768   L 0.2505,135.79864   L 0.37074,136.19958   L 0.52104,136.5905   L 0.7014,136.97139   L 0.89178,137.33224   L 1.11222,137.69309   L 1.3527,138.03388   L 1.61322,138.35464   L 1.9038,138.66537   L 2.2044,138.95605   L 2.52504,139.22668   L 2.86572,139.47727   L 3.21642,139.70781   L 3.59718,139.91831   L 3.98796,140.09873   L 4.38876,140.25911   L 4.8096,140.39944   L 5.24046,140.49967   L 5.69136,140.57986   L 6.15228,140.61995   L 6.62322,140.64  z "
     id="path1" />
  <path
     style="fill:#ffffff;fill-rule:evenodd;fill-opacity:1;stroke:none;"
     d="  M 18.06606,127.41898   L 142.25394,127.41898   L 80.16,19.836545   L 18.06606,127.41898  z "
     id="path2" />
  <path
     style="fill:#1f1a17;fill-rule:evenodd;fill-opacity:1;stroke:none;"
     d="  M 75.66102,108.5046   L 75.66102,116.05231   L 71.3925,116.03226   L 71.37246,108.11368   L 70.10994,108.11368   L 70.05984,102.29001   L 69.89952,102.05947   L 69.7392,101.81891   L 69.5889,101.58837   L 69.44862,101.3478   L 69.32838,101.12729   L 69.22818,100.89675   L 69.138,100.6662   L 69.06786,100.41562   L 69.01776,100.17505   L 68.97768,99.924464   L 68.94762,99.663853   L 68.94762,99.413265   L 68.94762,99.232842   L 68.94762,99.042395   L 68.96766,98.871995   L 68.9877,98.691572   L 69.01776,98.511148   L 69.05784,98.330725   L 69.10794,98.160325   L 69.16806,97.989925   L 69.22818,97.819525   L 69.29832,97.659149   L 69.37848,97.498773   L 69.46866,97.338396   L 69.56886,97.188044   L 69.67908,97.037691   L 69.7893,96.897362   L 69.90954,96.757032   L 70.05984,96.606679   L 70.23018,96.456327   L 70.40052,96.315997   L 70.57086,96.185692   L 70.76124,96.075433   L 70.95162,95.965174   L 71.15202,95.874963   L 71.35242,95.794774   L 71.53278,95.714586   L 71.73318,95.634398   L 71.93358,95.574257   L 72.12396,95.514116   L 72.77526,94.251152   L 66.01176,94.201035   L 66.05184,99.844276   L 63.26628,99.824229   L 63.28632,94.040659   L 62.0739,94.110823   L 62.14404,89.920992   L 62.01378,89.790686   L 61.8735,89.63031   L 61.74324,89.469934   L 61.64304,89.319581   L 61.58292,89.229369   L 61.54284,89.129134   L 61.50276,89.028899   L 61.4727,88.928664   L 61.44264,88.818405   L 61.4226,88.708146   L 61.40256,88.597888   L 61.39254,88.487629   L 61.38252,88.267111   L 61.39254,88.03657   L 61.41258,87.826077   L 61.44264,87.615583   L 61.48272,87.435159   L 61.53282,87.244712   L 61.59294,87.074313   L 61.6731,86.893889   L 61.76328,86.723489   L 61.86348,86.563113   L 61.9737,86.41276   L 62.10396,86.262408   L 62.21418,86.132102   L 62.33442,86.01182   L 62.45466,85.901561   L 62.58492,85.801326   L 62.7252,85.70109   L 62.86548,85.620902   L 63.01578,85.540714   L 63.16608,85.470549   L 63.30636,85.430455   L 63.44664,85.390361   L 63.58692,85.350267   L 63.7272,85.320197   L 64.49874,84.117374   L 59.54886,84.117374   L 59.52882,87.966406   L 57.5148,87.966406   L 57.48474,84.097327   L 56.83344,84.117374   L 56.85348,81.150413   L 56.74326,81.03013   L 56.63304,80.889801   L 56.54286,80.739448   L 56.47272,80.589096   L 56.43264,80.518931   L 56.40258,80.428719   L 56.37252,80.348531   L 56.3625,80.258319   L 56.34246,80.178131   L 56.33244,80.077896   L 56.33244,79.987684   L 56.33244,79.897473   L 56.35248,79.717049   L 56.38254,79.526603   L 56.42262,79.346179   L 56.47272,79.165756   L 56.50278,79.065521   L 56.54286,78.955262   L 56.58294,78.83498   L 56.63304,78.724721   L 56.69316,78.614462   L 56.7633,78.514227   L 56.84346,78.424015   L 56.93364,78.343827   L 57.02382,78.283686   L 57.12402,78.223545   L 57.24426,78.173427   L 57.3645,78.12331   L 57.60498,78.033098   L 57.82542,77.972957   L 61.2723,72.39988   L 61.34244,72.299645   L 61.41258,72.209433   L 61.49274,72.109198   L 61.5729,72.02901   L 61.65306,71.948822   L 61.75326,71.878657   L 61.85346,71.818516   L 61.95366,71.778422   L 62.05386,71.748352   L 62.1741,71.718281   L 62.29434,71.708257   L 62.4246,71.698234   L 62.68512,71.68821   L 62.90556,71.68821   L 75.05982,71.708257   L 75.32034,71.708257   L 75.61092,71.738328   L 75.76122,71.758375   L 75.9015,71.778422   L 76.02174,71.818516   L 76.12194,71.868634   L 76.21212,71.928775   L 76.29228,72.008963   L 76.37244,72.089151   L 76.43256,72.189386   L 76.5528,72.389857   L 76.64298,72.580304   L 78.43656,76.639829   L 88.14594,76.679923   L 88.31628,76.679923   L 88.48662,76.69997   L 88.66698,76.730041   L 88.83732,76.770135   L 89.00766,76.810229   L 89.16798,76.87037   L 89.3283,76.940535   L 89.4786,77.020723   L 89.61888,77.120958   L 89.74914,77.221193   L 89.8794,77.331452   L 89.99964,77.451734   L 90.10986,77.58204   L 90.21006,77.722369   L 90.29022,77.862698   L 90.37038,78.013051   L 92.6349,83.125046   L 106.17192,83.125046   L 106.38234,83.135069   L 106.58274,83.16514   L 106.78314,83.205234   L 106.98354,83.255352   L 107.17392,83.325516   L 107.3643,83.405705   L 107.54466,83.50594   L 107.72502,83.616198   L 107.87532,83.716434   L 108.02562,83.816669   L 108.15588,83.936951   L 108.29616,84.067257   L 108.40638,84.207586   L 108.5166,84.357939   L 108.6168,84.508292   L 108.69696,84.668668   L 113.81718,95.995245   L 114.10776,96.065409   L 114.39834,96.135574   L 114.6789,96.205739   L 114.95946,96.275903   L 115.1799,96.356092   L 115.40034,96.43628   L 115.61076,96.536515   L 115.81116,96.656797   L 116.00154,96.777079   L 116.19192,96.917409   L 116.36226,97.067761   L 116.5326,97.218114   L 116.6328,97.318349   L 116.72298,97.418585   L 116.81316,97.528843   L 116.89332,97.639102   L 117.04362,97.869643   L 117.1839,98.110207   L 117.30414,98.360795   L 117.40434,98.621407   L 117.49452,98.892042   L 117.57468,99.152653   L 117.6348,99.403241   L 117.67488,99.663853   L 117.70494,99.914441   L 117.72498,100.16503   L 117.72498,100.42564   L 117.70494,100.67623   L 117.67488,100.92682   L 117.62478,101.1774   L 117.54462,101.43802   L 117.44442,101.69863   L 117.3843,101.81891   L 117.31416,101.93919   L 117.24402,102.05947   L 117.16386,102.16973   L 117.02358,102.31006   L 116.87328,102.46041   L 116.72298,102.60074   L 116.5827,102.74107   L 116.61276,108.64493   L 114.85926,108.61486   L 114.88932,116.03226   L 110.49054,116.08238   L 110.49054,108.57476   L 98.06574,108.61486   L 97.96554,108.74516   L 97.86534,108.87547   L 97.76514,108.99575   L 97.65492,109.11603   L 97.42446,109.34657   L 97.18398,109.55707   L 96.93348,109.75754   L 96.66294,109.94798   L 96.38238,110.10836   L 96.10182,110.25871   L 95.80122,110.39904   L 95.50062,110.5093   L 95.19,110.60954   L 94.86936,110.68972   L 94.54872,110.75989   L 94.21806,110.79998   L 94.05774,110.82003   L 93.8874,110.83005   L 93.71706,110.83005   L 93.55674,110.83005   L 93.21606,110.81001   L 92.8854,110.77994   L 92.56476,110.71979   L 92.24412,110.63961   L 91.9335,110.54939   L 91.62288,110.43914   L 91.3323,110.31885   L 91.04172,110.17852   L 90.77118,110.01815   L 90.50064,109.83773   L 90.24012,109.64728   L 89.99964,109.44681   L 89.8794,109.33655   L 89.76918,109.22629   L 89.65896,109.10601   L 89.54874,108.98573   L 89.44854,108.86544   L 89.34834,108.74516   L 89.24814,108.61486   L 89.15796,108.48455   L 75.66102,108.5046  z "
     id="path3" />
  <path
     style="fill:#ffffff;fill-rule:evenodd;fill-opacity:1;stroke:none;"
     d="  M 68.02578,78.033098   L 59.40858,78.063169   L 62.10396,73.362138   L 62.15406,73.28195   L 62.20416,73.191738   L 62.26428,73.11155   L 62.33442,73.031362   L 62.40456,72.961197   L 62.4747,72.891033   L 62.55486,72.840915   L 62.63502,72.790798   L 62.70516,72.760727   L 62.76528,72.730656   L 62.84544,72.710609   L 62.91558,72.690562   L 63.05586,72.680539   L 63.19614,72.670515   L 74.42856,72.670515   L 74.60892,72.680539   L 74.78928,72.710609   L 74.87946,72.730656   L 74.96964,72.760727   L 75.0498,72.790798   L 75.12996,72.830892   L 75.21012,72.881009   L 75.29028,72.931127   L 75.36042,72.981244   L 75.42054,73.041386   L 75.47064,73.101527   L 75.52074,73.171691   L 75.56082,73.241856   L 75.59088,73.312021   L 76.88346,76.469429   L 70.45062,76.429335   L 70.2402,76.429335   L 69.96966,76.429335   L 69.67908,76.449382   L 69.42858,76.469429   L 69.29832,76.509523   L 69.16806,76.559641   L 69.0378,76.619782   L 68.91756,76.679923   L 68.80734,76.760111   L 68.71716,76.850323   L 68.62698,76.960582   L 68.55684,77.07084   L 68.04582,78.013051   L 68.04582,78.033098   L 68.02578,78.033098  z "
     id="path4" />
  <path
     style="fill:#ffffff;fill-rule:evenodd;fill-opacity:1;stroke:none;"
     d="  M 77.97564,85.340244   L 65.94162,85.340244   L 69.60894,78.734744   L 69.70914,78.574368   L 69.82938,78.413992   L 69.89952,78.333804   L 69.96966,78.263639   L 70.04982,78.203498   L 70.14,78.15338   L 70.22016,78.12331   L 70.31034,78.093239   L 70.41054,78.073192   L 70.52076,78.053145   L 70.73118,78.043122   L 70.92156,78.043122   L 87.03372,78.013051   L 87.174,78.023075   L 87.3243,78.033098   L 87.4746,78.063169   L 87.6249,78.093239   L 87.7752,78.133333   L 87.91548,78.193474   L 88.04574,78.263639   L 88.176,78.343827   L 88.24614,78.403968   L 88.30626,78.474133   L 88.36638,78.554321   L 88.4265,78.634509   L 88.5267,78.804909   L 88.60686,78.965285   L 90.35034,82.854411   L 81.40248,82.854411   L 81.25218,82.844387   L 81.10188,82.844387   L 80.93154,82.854411   L 80.7612,82.864434   L 80.58084,82.874458   L 80.42052,82.904529   L 80.2602,82.934599   L 80.11992,82.96467   L 79.94958,83.034834   L 79.77924,83.115022   L 79.62894,83.205234   L 79.47864,83.305469   L 79.33836,83.415728   L 79.2081,83.53601   L 79.08786,83.666316   L 78.97764,83.796622   L 78.83736,83.977045   L 78.7071,84.167492   L 78.57684,84.357939   L 78.44658,84.548386   L 78.32634,84.748856   L 78.2061,84.949326   L 78.08586,85.139773   L 77.97564,85.340244  z "
     id="path5" />
  <path
     style="fill:#ffffff;fill-rule:evenodd;fill-opacity:1;stroke:none;"
     d="  M 110.5707,95.764704   L 75.03978,95.72461   L 80.42052,86.122078   L 80.50068,85.991773   L 80.59086,85.861467   L 80.69106,85.751208   L 80.80128,85.630926   L 80.92152,85.530691   L 81.04176,85.440479   L 81.18204,85.360291   L 81.32232,85.290126   L 81.45258,85.240009   L 81.59286,85.189891   L 81.73314,85.15982   L 81.88344,85.139773   L 82.17402,85.109703   L 82.4646,85.109703   L 104.88936,85.179867   L 105.04968,85.179867   L 105.22002,85.189891   L 105.39036,85.209938   L 105.5607,85.250032   L 105.72102,85.290126   L 105.88134,85.350267   L 105.95148,85.390361   L 106.0116,85.430455   L 106.07172,85.470549   L 106.12182,85.520667   L 106.17192,85.580808   L 106.23204,85.681043   L 106.30218,85.801326   L 106.3623,85.931631   L 106.48254,86.182219   L 106.5627,86.372666   L 110.5707,95.764704  z "
     id="path6" />
</svg>
