<?xml version="1.0" encoding="UTF-8"?>
<svg id="Ebene_2" data-name="Ebene 2" xmlns="http://www.w3.org/2000/svg" viewBox="0 0 263.54 268.6">
  <defs>
    <style>
      .cls-1 {
        fill: #2d519f;
      }

      .cls-2, .cls-3 {
        fill: #fff;
      }

      .cls-4 {
        fill: #e52713;
      }

      .cls-3 {
        stroke: #000;
        stroke-miterlimit: 10;
      }
    </style>
  </defs>
  <rect class="cls-3" x="11.26" y="14.13" width="239.87" height="239.87"/>
  <rect class="cls-1" x="15.83" y="18.7" width="230.09" height="230.09"/>
  <rect class="cls-2" x="70.87" y="81.04" width="120.78" height="48.78"/>
  <rect class="cls-2" x="119.39" y="17.13" width="23.74" height="76.43"/>
  <rect class="cls-2" x="108.31" y="127.35" width="45.91" height="124.04"/>
  <rect class="cls-4" x="76.87" y="86.26" width="109.04" height="38.35"/>
  <circle class="cls-2" cx="167.69" cy="31.84" r="2.87"/>
  <path class="cls-2" d="M165.4,37.51l-8.09,11.93c-.27.47-.19,1.04.16,1.37.42.39,1.16.37,1.6-.13,1.93-2.59,3.87-5.17,5.8-7.76l.33,4.83-5.48,24.2,1.83-.07c.08,0,.72.05,1.16-.42.27-.29.33-.62.34-.75l4.76-16.5.59.13,2.22,6.85s.59,1.3,1.17,2.15c.59.85,5.61,8.54,5.61,8.54.29-.4.7-1.1.86-2.04.33-1.86-.55-3.31-.8-3.7-1.22-1.89-2.43-3.78-3.65-5.67l-3.26-12.65.65-6.07,1.76,1.83,2.09,6.59c.27.5.85.73,1.35.55.44-.15.74-.59.73-1.08-.67-2.46-1.35-4.91-2.02-7.37l-5.61-5.74c-.16-.1-1.13-.67-2.35-.34-1.1.3-1.64,1.13-1.76,1.32Z"/>
  <path class="cls-2" d="M102.32,47.53c-.77,0-1.51.15-2.23.33l-2.84-6.95.55-1.54h1.28v-1.66h-5.3v1.1l2.36.56-.53,1.54h-14.91l.56-1.81c.13-.45.24-.82.57-1.12.33-.27.95-.27,1.44-.27h2.49v-1.65h-3.11c-.95,0-1.77.32-2.26.82-.42.43-.66,1.16-.83,1.75l-2.54,8.92c-.45-.07-.87-.13-1.33-.13-4.66,0-8.45,3.79-8.45,8.45s3.79,8.45,8.45,8.45,8.45-3.79,8.45-8.45c0-1.82-.59-3.48-1.58-4.85-.99-1.36-2.38-2.43-3.98-3.03l.58-1.85,10.38,10.38c.34.34.74.68,1.21.83.44.18.99.18,1.44.18h1.83c.74,3.92,4.18,6.88,8.3,6.88,4.66,0,8.44-3.78,8.44-8.44s-3.78-8.44-8.44-8.44ZM82.28,55.87c0,3.65-2.97,6.61-6.62,6.61s-6.61-2.96-6.61-6.61,2.96-6.61,6.61-6.61c.28,0,.56.01.82.05l-1.78,6.34c-.03.1-.06.23-.06.37,0,.28.12.59.58.73.68.19,1.02-.28,1.12-.63l1.77-6.39c2.44.97,4.17,3.35,4.17,6.14ZM90.84,55.47l-11.09-11.19.51-1.79h14.82l-4.24,12.98ZM93.88,55.84h-1.44l4.05-12.28,2.04,4.84c-2.72,1.38-4.6,4.19-4.65,7.44ZM96.64,52.46c.61-.97,1.48-1.77,2.52-2.34l2.25,5.72h-5.72c0-1.26.35-2.41.95-3.38ZM102.28,62.58c-3.1,0-5.72-2.15-6.43-5.03h5.33s.23-.01.23-.01c.63,0,1.45-.03,1.81-.59.33-.54-.09-1.38-.23-1.76l-2.27-5.66c.5-.12,1.02-.18,1.56-.18,3.65,0,6.62,2.96,6.62,6.61s-2.97,6.62-6.62,6.62Z"/>
</svg>