<?xml version="1.0" encoding="UTF-8"?>
<svg id="Abbildungen" xmlns="http://www.w3.org/2000/svg" viewBox="0 0 64 64">
  <defs>
    <style>
      .cls-1 {
        fill-rule: evenodd;
      }
    </style>
  </defs>
  <g id="g10">
    <g id="g12">
      <path id="path14" class="cls-1" d="M20.16,45.87v-3.1c1.92-1.07,6.19-3.11,11.97-3.12,5.83-.01,10.13,2.05,12.05,3.12v3.19l-24.02-.08ZM44.18,39.58h0c0-2.43,1.28-4.74,3.45-5.82.93-.46,1.97-.73,3.05-.74.92-.01,1.82.16,2.65.48,2.46.97,4,3.44,4,6.08v18.68h-3.53v-4.94l-5.83.08v7.09h-3.71v-7.09h-24.19v5h-3.78v-5h-5.89v7.03h-3.74v-24.22c0-3.15,2.03-6.05,5.08-6.84.55-.14,1.11-.22,1.69-.22.19,0,.39,0,.58.02,3.51.26,6.13,3.36,6.13,6.88v3.59c2.14-1.09,6.6-3.01,12.52-2.91,5.35.09,9.4,1.79,11.5,2.85"/>
    </g>
  </g>
  <path class="cls-1" d="M45.73,6.07s0,0,0,.01l-7.4,7.4s-.09.08-.14.12c-.03.02-.05.04-.08.06-.04.03-.08.06-.12.08-.06.04-.12.07-.19.1-.12.06-.26.1-.39.13,0,0-.01,0-.01,0-.09.01-.17.02-.26.02-.1,0-.2,0-.3-.01-.02,0-.03,0-.04,0h0c-.11-.03-.22-.04-.32-.07l-.55.55-2.19,2.19,1.26,1.26s.09-.05.13-.08c.32-.16.71-.13,1.01.08.05.04,6.31,6.28,6.31,6.28l2.66,2.75c.21.38.14.86-.17,1.17l-.81.81c-.4.39-1.03.39-1.42,0l-8.66-8.67c-.34-.34-.39-.88-.13-1.26.01-.03.03-.05.05-.08l-1.25-1.25-1.25,1.25c.04.06.08.11.11.17.14.28.14.61,0,.89-.04.1-.11.19-.19.27l-8.66,8.67c-.38.39-1,.39-1.4.01-.01,0-.02,0-.02-.01l-.16-.16-.65-.65c-.39-.39-.39-1.03,0-1.43l8.66-8.66c.12-.12.25-.2.4-.24.2-.07.43-.07.63,0,.09.03.17.08.26.13l1.26-1.26-1.52-1.52c-.14-.02-.35-.05-.61-.05-.37-.02-.5,0-.7-.02-.22-.02-.52-.11-.88-.38l-5.86-5.91c-.73-.75-1.1-1.81-.9-2.83,0-.02.01-.02.01-.04.18-.86.67-1.45,1-1.78.17-.16.43-.16.6.01l7.85,7.87c.22.37.31.69.34.91.03.15.03.27.07.63.03.25.06.45.08.58l1.52,1.52,2.15-2.24.11-.12.44-.44c-.04-.11-.05-.21-.07-.32h0s0-.03,0-.05c-.02-.11-.02-.21-.01-.3,0-.09.01-.17.02-.26,0,0,0,0,0-.01.03-.13.07-.27.13-.39.03-.07.06-.13.1-.19.02-.04.05-.08.08-.12.02-.03.04-.06.06-.08.04-.05.08-.09.12-.14l7.4-7.4s0,0,.01,0c.16-.17.41-.18.55-.04.13.13.13.34-.01.51,0,.02-.02.03-.03.04h-.01s-6.79,6.8-6.79,6.8c-.13.13-.14.33-.03.48,0,.02.02.03.03.04.06.07.15.11.24.11.09,0,.19-.03.26-.11l6.82-6.82s0,0,0,0c.14-.14.35-.16.5-.05.11.14.1.35-.05.5t0,0l-6.82,6.82c-.07.07-.11.17-.1.26,0,.09.04.18.11.24.01.02.02.03.04.03.14.11.34.11.48-.03l6.79-6.79s0,0,.01-.01c.02-.02.03-.03.04-.03.16-.14.38-.14.51-.01.14.14.13.39-.04.55Z"/>
</svg>