<?xml version="1.0" encoding="UTF-8" standalone="no"?>
<svg
   version="1.0"
   width="46.024799mm"
   height="28.0162mm"
   id="svg19"
   sodipodi:docname="606.wmf"
   xmlns:inkscape="http://www.inkscape.org/namespaces/inkscape"
   xmlns:sodipodi="http://sodipodi.sourceforge.net/DTD/sodipodi-0.dtd"
   xmlns="http://www.w3.org/2000/svg"
   xmlns:svg="http://www.w3.org/2000/svg">
  <sodipodi:namedview
     id="namedview19"
     pagecolor="#ffffff"
     bordercolor="#000000"
     borderopacity="0.25"
     inkscape:showpageshadow="2"
     inkscape:pageopacity="0.0"
     inkscape:pagecheckerboard="0"
     inkscape:deskcolor="#d1d1d1"
     inkscape:document-units="mm" />
  <defs
     id="defs1">
    <pattern
       id="WMFhbasepattern"
       patternUnits="userSpaceOnUse"
       width="6"
       height="6"
       x="0"
       y="0" />
  </defs>
  <path
     style="fill:#abaaa9;fill-rule:evenodd;fill-opacity:1;stroke:none;"
     d="  M 0,105.792   L 173.856,105.792   L 173.856,0   L 0,0   L 0,105.792  z "
     id="path1" />
  <path
     style="fill:#ffffff;fill-rule:evenodd;fill-opacity:1;stroke:none;"
     d="  M 6.530466,30.240256   L 21.503814,30.240256   L 21.503814,33.021969   L 6.530466,33.021969   L 6.530466,30.240256  z "
     id="path2" />
  <path
     style="fill:#ffffff;fill-rule:evenodd;fill-opacity:1;stroke:none;"
     d="  M 53.56938,30.240256   L 70.074834,30.240256   L 70.074834,33.021969   L 53.56938,33.021969   L 53.56938,30.240256  z "
     id="path3" />
  <path
     style="fill:#ffffff;fill-rule:evenodd;fill-opacity:1;stroke:none;"
     d="  M 102.1404,30.240256   L 118.65672,30.240256   L 118.65672,33.021969   L 102.1404,33.021969   L 102.1404,30.240256  z "
     id="path4" />
  <path
     style="fill:#ffffff;fill-rule:evenodd;fill-opacity:1;stroke:none;"
     d="  M 150.72229,30.240256   L 167.22774,30.240256   L 167.22774,33.021969   L 150.72229,33.021969   L 150.72229,30.240256  z "
     id="path5" />
  <path
     style="fill:#ffffff;fill-rule:evenodd;fill-opacity:1;stroke:none;"
     d="  M 6.530466,73.052549   L 21.503814,73.052549   L 21.503814,75.845127   L 6.530466,75.845127   L 6.530466,73.052549  z "
     id="path6" />
  <path
     style="fill:#ffffff;fill-rule:evenodd;fill-opacity:1;stroke:none;"
     d="  M 53.56938,73.052549   L 70.074834,73.052549   L 70.074834,75.845127   L 53.56938,75.845127   L 53.56938,73.052549  z "
     id="path7" />
  <path
     style="fill:#ffffff;fill-rule:evenodd;fill-opacity:1;stroke:none;"
     d="  M 102.1404,73.052549   L 118.65672,73.052549   L 118.65672,75.845127   L 102.1404,75.845127   L 102.1404,73.052549  z "
     id="path8" />
  <path
     style="fill:#ffffff;fill-rule:evenodd;fill-opacity:1;stroke:none;"
     d="  M 150.72229,73.052549   L 167.22774,73.052549   L 167.22774,75.845127   L 150.72229,75.845127   L 150.72229,73.052549  z "
     id="path9" />
  <path
     style="fill:#ffffff;fill-rule:evenodd;fill-opacity:1;stroke:none;"
     d="  M 121.7318,57.405417   L 136.80294,55.004016   L 59.904258,55.004016   L 59.904258,52.320099   L 136.98766,52.320099   L 121.7318,49.723109   L 121.7318,47.332575   L 159.74107,53.569696   L 121.7318,59.904611   L 121.7318,57.405417  z "
     id="path10" />
  <path
     style="fill:#ffffff;fill-rule:evenodd;fill-opacity:1;stroke:none;"
     d="  M 141.01895,18.526639   L 148.02752,12.289518   L 125.28498,17.66822   L 59.904258,17.66822   L 59.904258,14.973436   L 123.64421,14.973436   L 142.17074,10.844332   L 121.7318,10.844332   L 121.82959,7.964825   L 161.37097,7.964825   L 145.5392,23.231645   L 141.01895,18.526639  z "
     id="path11" />
  <path
     style="fill:#ffffff;fill-rule:evenodd;fill-opacity:1;stroke:none;"
     d="  M 120.96031,90.622975   L 136.03145,88.221574   L 82.179558,88.221574   L 93.219414,97.055684   L 93.980034,90.622975   L 98.782806,91.101081   L 97.533216,101.85848   L 78.050478,99.457085   L 78.2352,96.860095   L 89.090334,98.207487   L 76.127196,88.221574   L 59.132772,88.221574   L 59.132772,85.537657   L 136.22704,85.537657   L 120.96031,83.038462   L 120.96031,80.539267   L 158.98045,86.885048   L 120.96031,93.122169   L 120.96031,90.622975  z "
     id="path12" />
  <path
     style="fill:#1f1a17;fill-rule:evenodd;fill-opacity:1;stroke:none;"
     d="  M 5.183082,97.533791   L 5.183082,96.773167   L 5.193948,96.642774   L 5.204814,96.523247   L 5.237412,96.403721   L 5.27001,96.29506   L 5.313474,96.186399   L 5.367804,96.077739   L 5.433,95.979944   L 5.509062,95.893016   L 5.585124,95.806087   L 5.672052,95.740891   L 5.769846,95.675694   L 5.86764,95.621364   L 5.9763,95.5779   L 6.095826,95.545302   L 6.215352,95.523569   L 6.334878,95.523569   L 6.421806,95.523569   L 6.508734,95.534435   L 6.595662,95.545302   L 6.671724,95.567034   L 6.758652,95.599632   L 6.834714,95.63223   L 6.89991,95.675694   L 6.975972,95.708293   L 7.095498,95.806087   L 7.215024,95.925614   L 7.312818,96.056007   L 7.38888,96.186399   L 8.834058,96.186399   L 8.768862,95.979944   L 8.6928,95.773489   L 8.605872,95.588766   L 8.497212,95.404043   L 8.377686,95.241052   L 8.247294,95.078061   L 8.106036,94.936802   L 7.953912,94.795543   L 7.790922,94.686882   L 7.617066,94.578222   L 7.44321,94.491293   L 7.247622,94.415231   L 7.052034,94.350035   L 6.856446,94.30657   L 6.649992,94.284838   L 6.432672,94.273972   L 6.291414,94.273972   L 6.150156,94.284838   L 6.008898,94.30657   L 5.878506,94.328302   L 5.737248,94.350035   L 5.617722,94.393499   L 5.48733,94.426097   L 5.367804,94.480427   L 5.248278,94.534758   L 5.128752,94.589088   L 5.009226,94.654284   L 4.911432,94.719481   L 4.802772,94.795543   L 4.704978,94.871606   L 4.607184,94.958534   L 4.50939,95.045463   L 4.422462,95.132391   L 4.335534,95.230186   L 4.259472,95.32798   L 4.194276,95.436641   L 4.118214,95.545302   L 4.053018,95.653962   L 3.998688,95.773489   L 3.944358,95.893016   L 3.900894,96.012542   L 3.85743,96.142935   L 3.824832,96.273328   L 3.792234,96.403721   L 3.770502,96.544979   L 3.759636,96.675372   L 3.74877,96.816631   L 3.74877,96.95789   L 3.74877,99.35929   L 3.74877,99.533147   L 3.759636,99.696138   L 3.770502,99.848263   L 3.792234,100.00039   L 3.824832,100.13078   L 3.85743,100.26117   L 3.890028,100.3807   L 3.933492,100.50023   L 3.987822,100.60889   L 4.031286,100.71755   L 4.085616,100.81534   L 4.150812,100.91314   L 4.281204,101.09786   L 4.411596,101.28258   L 4.487658,101.38038   L 4.574586,101.47817   L 4.67238,101.5651   L 4.770174,101.64116   L 4.878834,101.71723   L 4.987494,101.77156   L 5.10702,101.83675   L 5.237412,101.88022   L 5.356938,101.92368   L 5.48733,101.95628   L 5.628588,101.98888   L 5.769846,102.01061   L 6.052362,102.04321   L 6.334878,102.04321   L 6.46527,102.04321   L 6.606528,102.03234   L 6.73692,102.02148   L 6.856446,101.99974   L 6.986838,101.97801   L 7.106364,101.94541   L 7.22589,101.90195   L 7.345416,101.85848   L 7.464942,101.81502   L 7.573602,101.76069   L 7.682262,101.70636   L 7.790922,101.64116   L 7.888716,101.57597   L 7.98651,101.4999   L 8.084304,101.42384   L 8.171232,101.33691   L 8.25816,101.26085   L 8.334222,101.16306   L 8.410284,101.07613   L 8.486346,100.97833   L 8.551542,100.86967   L 8.616738,100.77188   L 8.671068,100.66322   L 8.725398,100.55456   L 8.768862,100.43503   L 8.812326,100.3155   L 8.844924,100.19598   L 8.877522,100.07645   L 8.899254,99.946058   L 8.91012,99.815665   L 8.920986,99.685272   L 8.931852,99.554879   L 8.920986,99.41362   L 8.920986,99.283228   L 8.899254,99.163701   L 8.877522,99.033308   L 8.85579,98.913781   L 8.823192,98.783389   L 8.779728,98.674728   L 8.74713,98.555201   L 8.649336,98.33788   L 8.52981,98.131425   L 8.388552,97.935836   L 8.247294,97.761979   L 8.073438,97.609854   L 7.899582,97.468595   L 7.71486,97.349068   L 7.508406,97.240408   L 7.410612,97.196943   L 7.301952,97.164345   L 7.193292,97.131747   L 7.084632,97.099149   L 6.965106,97.088283   L 6.856446,97.066551   L 6.73692,97.055684   L 6.62826,97.055684   L 6.41094,97.066551   L 6.204486,97.088283   L 6.019764,97.131747   L 5.835042,97.186077   L 5.65032,97.26214   L 5.48733,97.338202   L 5.335206,97.435997   L 5.183082,97.533791  z "
     id="path13" />
  <path
     style="fill:#1f1a17;fill-rule:evenodd;fill-opacity:1;stroke:none;"
     d="  M 10.170576,101.95628   L 11.420166,101.95628   L 11.420166,100.80448   L 10.170576,100.70668   L 10.170576,101.95628  z "
     id="path14" />
  <path
     style="fill:#1f1a17;fill-rule:evenodd;fill-opacity:1;stroke:none;"
     d="  M 15.168936,102.04321   L 15.26673,102.04321   L 15.397122,102.04321   L 15.527514,102.03234   L 15.657906,102.02148   L 15.788298,101.99974   L 15.91869,101.97801   L 16.038216,101.94541   L 16.157742,101.90195   L 16.277268,101.85848   L 16.385928,101.81502   L 16.505454,101.76069   L 16.614114,101.70636   L 16.711908,101.64116   L 16.820568,101.57597   L 16.918362,101.51077   L 17.00529,101.43471   L 17.103084,101.34778   L 17.190012,101.27172   L 17.266074,101.18479   L 17.342136,101.09786   L 17.418198,101.00007   L 17.483394,100.90227   L 17.54859,100.80448   L 17.60292,100.69582   L 17.65725,100.58716   L 17.700714,100.47849   L 17.744178,100.36983   L 17.776776,100.25031   L 17.809374,100.14165   L 17.831106,100.02212   L 17.841972,99.902593   L 17.852838,99.7722   L 17.852838,99.652674   L 17.852838,96.860095   L 17.841972,96.588444   L 17.82024,96.327658   L 17.798508,96.197265   L 17.76591,96.077739   L 17.733312,95.958212   L 17.689848,95.849551   L 17.635518,95.730025   L 17.581188,95.621364   L 17.515992,95.523569   L 17.450796,95.414909   L 17.374734,95.317114   L 17.287806,95.230186   L 17.190012,95.132391   L 17.092218,95.045463   L 16.907496,94.871606   L 16.711908,94.719481   L 16.603248,94.654284   L 16.505454,94.589088   L 16.396794,94.534758   L 16.288134,94.480427   L 16.168608,94.426097   L 16.049082,94.393499   L 15.929556,94.350035   L 15.81003,94.328302   L 15.679638,94.30657   L 15.53838,94.284838   L 15.407988,94.273972   L 15.26673,94.273972   L 15.125472,94.273972   L 14.984214,94.284838   L 14.842956,94.30657   L 14.712564,94.339168   L 14.582172,94.371767   L 14.462646,94.415231   L 14.34312,94.458695   L 14.223594,94.513025   L 14.114934,94.578222   L 14.006274,94.643418   L 13.897614,94.708615   L 13.79982,94.784677   L 13.702026,94.871606   L 13.615098,94.958534   L 13.52817,95.045463   L 13.441242,95.132391   L 13.289118,95.32798   L 13.14786,95.534435   L 13.0392,95.751757   L 12.941406,95.969078   L 12.865344,96.197265   L 12.811014,96.425453   L 12.789282,96.534113   L 12.778416,96.642774   L 12.76755,96.751435   L 12.76755,96.860095   L 12.76755,99.554879   L 12.76755,99.696138   L 12.778416,99.837397   L 12.800148,99.96779   L 12.82188,100.09818   L 12.843612,100.21771   L 12.887076,100.33724   L 12.919674,100.45676   L 12.974004,100.57629   L 13.028334,100.68495   L 13.082664,100.79361   L 13.14786,100.89141   L 13.213056,101.00007   L 13.36518,101.19565   L 13.539036,101.38038   L 13.625964,101.47817   L 13.712892,101.57597   L 13.810686,101.65203   L 13.897614,101.72809   L 13.995408,101.79329   L 14.082336,101.84762   L 14.18013,101.89108   L 14.277924,101.92368   L 14.375718,101.96715   L 14.484378,101.98888   L 14.593038,102.01061   L 14.701698,102.02148   L 14.919018,102.04321   L 15.168936,102.04321  z "
     id="path15" />
  <path
     style="fill:#1f1a17;fill-rule:evenodd;fill-opacity:1;stroke:none;"
     d="  M 20.449812,97.533791   L 20.449812,96.773167   L 20.449812,96.642774   L 20.471544,96.523247   L 20.493276,96.403721   L 20.53674,96.29506   L 20.580204,96.186399   L 20.634534,96.077739   L 20.69973,95.979944   L 20.775792,95.893016   L 20.851854,95.806087   L 20.938782,95.740891   L 21.036576,95.675694   L 21.13437,95.621364   L 21.24303,95.5779   L 21.362556,95.545302   L 21.471216,95.523569   L 21.601608,95.523569   L 21.688536,95.523569   L 21.775464,95.534435   L 21.862392,95.545302   L 21.938454,95.567034   L 22.014516,95.599632   L 22.090578,95.63223   L 22.16664,95.675694   L 22.231836,95.708293   L 22.362228,95.806087   L 22.481754,95.925614   L 22.579548,96.056007   L 22.65561,96.186399   L 24.100788,96.186399   L 24.035592,95.979944   L 23.95953,95.773489   L 23.861736,95.588766   L 23.763942,95.404043   L 23.644416,95.241052   L 23.514024,95.078061   L 23.372766,94.936802   L 23.220642,94.795543   L 23.057652,94.686882   L 22.883796,94.578222   L 22.70994,94.491293   L 22.514352,94.415231   L 22.318764,94.350035   L 22.123176,94.30657   L 21.905856,94.284838   L 21.699402,94.273972   L 21.558144,94.273972   L 21.416886,94.284838   L 21.275628,94.30657   L 21.13437,94.328302   L 21.003978,94.350035   L 20.873586,94.393499   L 20.75406,94.426097   L 20.623668,94.480427   L 20.504142,94.534758   L 20.395482,94.589088   L 20.275956,94.654284   L 20.167296,94.719481   L 20.069502,94.795543   L 19.960842,94.871606   L 19.863048,94.958534   L 19.77612,95.045463   L 19.689192,95.132391   L 19.602264,95.230186   L 19.526202,95.32798   L 19.45014,95.436641   L 19.384944,95.545302   L 19.319748,95.653962   L 19.265418,95.773489   L 19.211088,95.893016   L 19.167624,96.012542   L 19.12416,96.142935   L 19.091562,96.273328   L 19.058964,96.403721   L 19.037232,96.544979   L 19.0155,96.675372   L 19.0155,96.816631   L 19.004634,96.95789   L 19.004634,99.35929   L 19.0155,99.533147   L 19.0155,99.696138   L 19.037232,99.848263   L 19.058964,100.00039   L 19.080696,100.13078   L 19.12416,100.26117   L 19.156758,100.3807   L 19.200222,100.50023   L 19.243686,100.60889   L 19.298016,100.71755   L 19.352346,100.81534   L 19.417542,100.91314   L 19.537068,101.09786   L 19.678326,101.28258   L 19.754388,101.38038   L 19.841316,101.47817   L 19.928244,101.5651   L 20.036904,101.64116   L 20.134698,101.71723   L 20.254224,101.77156   L 20.37375,101.83675   L 20.493276,101.88022   L 20.623668,101.92368   L 20.75406,101.95628   L 20.895318,101.98888   L 21.02571,102.01061   L 21.308226,102.04321   L 21.601608,102.04321   L 21.732,102.04321   L 21.862392,102.03234   L 21.992784,102.02148   L 22.123176,101.99974   L 22.253568,101.97801   L 22.373094,101.94541   L 22.49262,101.90195   L 22.612146,101.85848   L 22.731672,101.81502   L 22.840332,101.76069   L 22.948992,101.70636   L 23.057652,101.64116   L 23.155446,101.57597   L 23.25324,101.4999   L 23.351034,101.42384   L 23.437962,101.33691   L 23.52489,101.26085   L 23.600952,101.16306   L 23.677014,101.07613   L 23.753076,100.97833   L 23.818272,100.86967   L 23.883468,100.77188   L 23.937798,100.66322   L 23.992128,100.55456   L 24.035592,100.43503   L 24.079056,100.3155   L 24.111654,100.19598   L 24.144252,100.07645   L 24.165984,99.946058   L 24.17685,99.815665   L 24.187716,99.685272   L 24.187716,99.554879   L 24.187716,99.41362   L 24.17685,99.283228   L 24.165984,99.163701   L 24.144252,99.033308   L 24.12252,98.913781   L 24.089922,98.783389   L 24.046458,98.674728   L 24.002994,98.555201   L 23.9052,98.33788   L 23.79654,98.131425   L 23.655282,97.935836   L 23.503158,97.761979   L 23.340168,97.609854   L 23.166312,97.468595   L 22.970724,97.349068   L 22.775136,97.240408   L 22.666476,97.196943   L 22.568682,97.164345   L 22.460022,97.131747   L 22.340496,97.099149   L 22.231836,97.088283   L 22.123176,97.066551   L 22.00365,97.055684   L 21.884124,97.055684   L 21.67767,97.066551   L 21.471216,97.088283   L 21.275628,97.131747   L 21.090906,97.186077   L 20.91705,97.26214   L 20.75406,97.338202   L 20.59107,97.435997   L 20.449812,97.533791  z "
     id="path16" />
  <path
     style="fill:#abaaa9;fill-rule:evenodd;fill-opacity:1;stroke:none;"
     d="  M 6.334878,100.89141   L 6.215352,100.89141   L 6.08496,100.86967   L 5.965434,100.84794   L 5.856774,100.80448   L 5.748114,100.76101   L 5.65032,100.70668   L 5.552526,100.64149   L 5.454732,100.56542   L 5.37867,100.47849   L 5.302608,100.3807   L 5.237412,100.28291   L 5.193948,100.16338   L 5.150484,100.05472   L 5.117886,99.924325   L 5.096154,99.793933   L 5.085288,99.652674   L 5.096154,99.489683   L 5.117886,99.348424   L 5.150484,99.207165   L 5.193948,99.076772   L 5.237412,98.957246   L 5.302608,98.848585   L 5.37867,98.739924   L 5.454732,98.652996   L 5.552526,98.576933   L 5.65032,98.500871   L 5.748114,98.446541   L 5.856774,98.39221   L 5.965434,98.359612   L 6.08496,98.327014   L 6.215352,98.305282   L 6.334878,98.305282   L 6.46527,98.305282   L 6.584796,98.327014   L 6.704322,98.348746   L 6.812982,98.39221   L 6.921642,98.435675   L 7.030302,98.500871   L 7.11723,98.566067   L 7.215024,98.64213   L 7.291086,98.729058   L 7.367148,98.815987   L 7.432344,98.924647   L 7.486674,99.033308   L 7.530138,99.152835   L 7.562736,99.283228   L 7.573602,99.41362   L 7.584468,99.554879   L 7.573602,99.707004   L 7.562736,99.859129   L 7.530138,100.00039   L 7.486674,100.13078   L 7.432344,100.25031   L 7.367148,100.35897   L 7.291086,100.45676   L 7.215024,100.54369   L 7.11723,100.63062   L 7.030302,100.69582   L 6.921642,100.76101   L 6.812982,100.80448   L 6.704322,100.84794   L 6.584796,100.86967   L 6.46527,100.89141   L 6.334878,100.89141  z "
     id="path17" />
  <path
     style="fill:#abaaa9;fill-rule:evenodd;fill-opacity:1;stroke:none;"
     d="  M 15.26673,100.89141   L 15.136338,100.89141   L 15.016812,100.86967   L 14.897286,100.84794   L 14.788626,100.81534   L 14.679966,100.76101   L 14.571306,100.70668   L 14.473512,100.64149   L 14.386584,100.57629   L 14.310522,100.48936   L 14.23446,100.40243   L 14.169264,100.30464   L 14.114934,100.20684   L 14.07147,100.09818   L 14.038872,99.989522   L 14.028006,99.869995   L 14.01714,99.739602   L 14.01714,96.860095   L 14.028006,96.718836   L 14.038872,96.588444   L 14.07147,96.458051   L 14.114934,96.327658   L 14.169264,96.208131   L 14.23446,96.099471   L 14.310522,96.001676   L 14.386584,95.903882   L 14.473512,95.816953   L 14.571306,95.740891   L 14.679966,95.675694   L 14.788626,95.621364   L 14.897286,95.5779   L 15.016812,95.545302   L 15.136338,95.523569   L 15.26673,95.523569   L 15.386256,95.523569   L 15.505782,95.545302   L 15.625308,95.5779   L 15.744834,95.621364   L 15.853494,95.675694   L 15.951288,95.740891   L 16.049082,95.806087   L 16.13601,95.893016   L 16.222938,95.979944   L 16.299,96.077739   L 16.35333,96.186399   L 16.40766,96.29506   L 16.451124,96.403721   L 16.483722,96.523247   L 16.505454,96.642774   L 16.51632,96.773167   L 16.51632,99.739602   L 16.505454,99.848263   L 16.483722,99.956924   L 16.451124,100.06558   L 16.40766,100.16338   L 16.35333,100.27204   L 16.299,100.35897   L 16.222938,100.45676   L 16.13601,100.53282   L 16.049082,100.61975   L 15.951288,100.68495   L 15.853494,100.75015   L 15.744834,100.79361   L 15.625308,100.83707   L 15.505782,100.86967   L 15.386256,100.89141   L 15.26673,100.89141  z "
     id="path18" />
  <path
     style="fill:#abaaa9;fill-rule:evenodd;fill-opacity:1;stroke:none;"
     d="  M 21.601608,100.89141   L 21.471216,100.89141   L 21.35169,100.86967   L 21.232164,100.84794   L 21.123504,100.80448   L 21.014844,100.76101   L 20.906184,100.70668   L 20.80839,100.64149   L 20.721462,100.56542   L 20.6454,100.47849   L 20.569338,100.3807   L 20.504142,100.28291   L 20.449812,100.16338   L 20.406348,100.05472   L 20.37375,99.924325   L 20.362884,99.793933   L 20.352018,99.652674   L 20.362884,99.489683   L 20.37375,99.348424   L 20.406348,99.207165   L 20.449812,99.076772   L 20.504142,98.957246   L 20.569338,98.848585   L 20.6454,98.739924   L 20.721462,98.652996   L 20.80839,98.576933   L 20.906184,98.500871   L 21.014844,98.446541   L 21.123504,98.39221   L 21.232164,98.359612   L 21.35169,98.327014   L 21.471216,98.305282   L 21.601608,98.305282   L 21.721134,98.305282   L 21.851526,98.327014   L 21.960186,98.348746   L 22.079712,98.39221   L 22.188372,98.435675   L 22.286166,98.500871   L 22.38396,98.566067   L 22.481754,98.64213   L 22.557816,98.729058   L 22.633878,98.815987   L 22.699074,98.924647   L 22.753404,99.033308   L 22.786002,99.152835   L 22.8186,99.283228   L 22.840332,99.41362   L 22.851198,99.554879   L 22.840332,99.707004   L 22.8186,99.859129   L 22.786002,100.00039   L 22.753404,100.13078   L 22.699074,100.25031   L 22.633878,100.35897   L 22.557816,100.45676   L 22.481754,100.54369   L 22.38396,100.63062   L 22.286166,100.69582   L 22.188372,100.76101   L 22.079712,100.80448   L 21.960186,100.84794   L 21.851526,100.86967   L 21.721134,100.89141   L 21.601608,100.89141  z "
     id="path19" />
</svg>
