<?xml version="1.0" encoding="UTF-8" standalone="no"?>
<svg
   version="1.0"
   width="46.024799mm"
   height="28.0162mm"
   id="svg32"
   sodipodi:docname="620.wmf"
   xmlns:inkscape="http://www.inkscape.org/namespaces/inkscape"
   xmlns:sodipodi="http://sodipodi.sourceforge.net/DTD/sodipodi-0.dtd"
   xmlns="http://www.w3.org/2000/svg"
   xmlns:svg="http://www.w3.org/2000/svg">
  <sodipodi:namedview
     id="namedview32"
     pagecolor="#ffffff"
     bordercolor="#000000"
     borderopacity="0.25"
     inkscape:showpageshadow="2"
     inkscape:pageopacity="0.0"
     inkscape:pagecheckerboard="0"
     inkscape:deskcolor="#d1d1d1"
     inkscape:document-units="mm" />
  <defs
     id="defs1">
    <pattern
       id="WMFhbasepattern"
       patternUnits="userSpaceOnUse"
       width="6"
       height="6"
       x="0"
       y="0" />
  </defs>
  <path
     style="fill:#abaaa9;fill-rule:evenodd;fill-opacity:1;stroke:none;"
     d="  M 0,105.792   L 173.8234,105.792   L 173.8234,0.032591497   L 0,0.032591497   L 0,105.792  z "
     id="path1" />
  <path
     style="fill:#848382;fill-rule:evenodd;fill-opacity:1;stroke:none;"
     d="  M 58.480812,0   L 173.856,0   L 173.856,12.536863   L 58.480812,0  z "
     id="path2" />
  <path
     style="fill:#848382;fill-rule:evenodd;fill-opacity:1;stroke:none;"
     d="  M 173.856,91.245328   L 173.856,105.792   L 108.63827,105.792   L 108.63827,94.243746   L 173.856,91.245328  z "
     id="path3" />
  <path
     style="fill:#848382;fill-rule:evenodd;fill-opacity:1;stroke:none;"
     d="  M 53.08041,105.792   L 0.021732,105.792   L 0.021732,99.251973   L 53.08041,96.796747   L 53.08041,105.792  z "
     id="path4" />
  <path
     style="fill:#ffffff;fill-rule:evenodd;fill-opacity:1;stroke:none;"
     d="  M 173.856,46.671024   L 173.856,49.061067   L 168.73811,48.539603   L 173.856,56.89389   L 173.856,62.369262   L 108.54047,65.421999   L 123.19871,41.49984   L 173.856,46.671024  z "
     id="path5" />
  <path
     style="fill:#ffffff;fill-rule:evenodd;fill-opacity:1;stroke:none;"
     d="  M 101.6297,65.73705   L 92.393598,66.171603   L 94.175622,63.249232   L 103.40086,62.836407   L 101.6297,65.73705  z "
     id="path6" />
  <path
     style="fill:#ffffff;fill-rule:evenodd;fill-opacity:1;stroke:none;"
     d="  M 115.46212,43.162006   L 107.01923,42.314627   L 108.43181,40.011495   L 116.86383,40.858874   L 115.46212,43.162006  z "
     id="path7" />
  <path
     style="fill:#ffffff;fill-rule:evenodd;fill-opacity:1;stroke:none;"
     d="  M 85.482822,66.497518   L 76.572702,66.910344   L 78.387324,63.955381   L 87.275712,63.55342   L 85.482822,66.497518  z "
     id="path8" />
  <path
     style="fill:#ffffff;fill-rule:evenodd;fill-opacity:1;stroke:none;"
     d="  M 100.69522,41.673661   L 92.545722,40.84801   L 93.969168,38.534014   L 102.1078,39.370529   L 100.69522,41.673661  z "
     id="path9" />
  <path
     style="fill:#ffffff;fill-rule:evenodd;fill-opacity:1;stroke:none;"
     d="  M 69.661926,67.225395   L 60.860466,67.638221   L 62.69682,64.639803   L 71.487414,64.259569   L 69.661926,67.225395  z "
     id="path10" />
  <path
     style="fill:#ffffff;fill-rule:evenodd;fill-opacity:1;stroke:none;"
     d="  M 86.22171,40.207044   L 78.170004,39.40312   L 79.59345,37.067396   L 87.645156,37.882184   L 86.22171,40.207044  z "
     id="path11" />
  <path
     style="fill:#ffffff;fill-rule:evenodd;fill-opacity:1;stroke:none;"
     d="  M 53.94969,67.964136   L 0.021732,70.462817   L 0.021732,67.420944   L 5.21568,67.192803   L 0.021732,58.719014   L 0.021732,54.05843   L 7.997376,67.073301   L 14.028006,66.801705   L 0.021732,43.944202   L 0.021732,39.272754   L 16.820568,66.671339   L 22.851198,66.410608   L 1.553838,31.657208   L 0.021732,31.505114   L 0.021732,28.962977   L 73.280304,36.42643   L 53.94969,67.964136  z "
     id="path12" />
  <path
     style="fill:#abaaa9;fill-rule:evenodd;fill-opacity:1;stroke:none;"
     d="  M 172.75853,59.761942   L 165.68477,48.235416   L 159.07824,47.572722   L 166.7279,60.033538   L 172.75853,59.761942  z "
     id="path13" />
  <path
     style="fill:#abaaa9;fill-rule:evenodd;fill-opacity:1;stroke:none;"
     d="  M 163.94621,60.163904   L 156.03576,47.257671   L 149.4401,46.594977   L 157.91558,60.424636   L 163.94621,60.163904  z "
     id="path14" />
  <path
     style="fill:#abaaa9;fill-rule:evenodd;fill-opacity:1;stroke:none;"
     d="  M 155.12302,60.544138   L 146.38675,46.279926   L 139.78022,45.617232   L 149.09239,60.815734   L 155.12302,60.544138  z "
     id="path15" />
  <path
     style="fill:#abaaa9;fill-rule:evenodd;fill-opacity:1;stroke:none;"
     d="  M 146.29982,60.935236   L 136.72688,45.313045   L 130.12035,44.639487   L 140.26919,61.206832   L 146.29982,60.935236  z "
     id="path16" />
  <path
     style="fill:#abaaa9;fill-rule:evenodd;fill-opacity:1;stroke:none;"
     d="  M 137.4875,61.337198   L 127.07787,44.3353   L 124.40483,44.063704   L 122.55761,47.08385   L 131.45687,61.59793   L 137.4875,61.337198  z "
     id="path17" />
  <path
     style="fill:#abaaa9;fill-rule:evenodd;fill-opacity:1;stroke:none;"
     d="  M 128.66431,61.728296   L 121.13417,49.419574   L 118.02649,54.471256   L 122.63368,61.978164   L 128.66431,61.728296  z "
     id="path18" />
  <path
     style="fill:#abaaa9;fill-rule:evenodd;fill-opacity:1;stroke:none;"
     d="  M 119.84111,62.10853   L 116.60305,56.80698   L 113.49537,61.858662   L 113.82135,62.380126   L 119.84111,62.10853  z "
     id="path19" />
  <path
     style="fill:#abaaa9;fill-rule:evenodd;fill-opacity:1;stroke:none;"
     d="  M 4.607184,31.972259   L 25.632894,66.280242   L 31.67439,66.01951   L 11.202846,32.634953   L 4.607184,31.972259  z "
     id="path20" />
  <path
     style="fill:#abaaa9;fill-rule:evenodd;fill-opacity:1;stroke:none;"
     d="  M 14.256192,32.950004   L 34.456086,65.900007   L 40.486716,65.628412   L 20.86272,33.612697   L 14.256192,32.950004  z "
     id="path21" />
  <path
     style="fill:#abaaa9;fill-rule:evenodd;fill-opacity:1;stroke:none;"
     d="  M 23.916066,33.927749   L 43.279278,65.508909   L 49.309908,65.237314   L 30.522594,34.590442   L 23.916066,33.927749  z "
     id="path22" />
  <path
     style="fill:#abaaa9;fill-rule:evenodd;fill-opacity:1;stroke:none;"
     d="  M 33.57594,34.89463   L 52.091604,65.117811   L 52.928286,65.074356   L 55.590456,60.717959   L 40.182468,35.568187   L 33.57594,34.89463  z "
     id="path23" />
  <path
     style="fill:#abaaa9;fill-rule:evenodd;fill-opacity:1;stroke:none;"
     d="  M 43.224948,35.872375   L 57.024768,58.382235   L 60.121578,53.330553   L 49.831476,36.535068   L 43.224948,35.872375  z "
     id="path24" />
  <path
     style="fill:#abaaa9;fill-rule:evenodd;fill-opacity:1;stroke:none;"
     d="  M 52.884822,36.839256   L 61.55589,50.994829   L 64.6527,45.943147   L 59.49135,37.512813   L 52.884822,36.839256  z "
     id="path25" />
  <path
     style="fill:#abaaa9;fill-rule:evenodd;fill-opacity:1;stroke:none;"
     d="  M 62.544696,37.817001   L 66.087012,43.607423   L 69.21642,38.490558   L 62.544696,37.817001  z "
     id="path26" />
  <path
     style="fill:#1f1a17;fill-rule:evenodd;fill-opacity:1;stroke:none;"
     d="  M 5.237412,89.941669   L 5.237412,89.170336   L 5.237412,89.050834   L 5.259144,88.920468   L 5.280876,88.81183   L 5.32434,88.692328   L 5.367804,88.583689   L 5.422134,88.485915   L 5.48733,88.38814   L 5.563392,88.290366   L 5.639454,88.214319   L 5.726382,88.138272   L 5.824176,88.073089   L 5.92197,88.029634   L 6.03063,87.986179   L 6.13929,87.953587   L 6.258816,87.93186   L 6.389208,87.920996   L 6.476136,87.93186   L 6.563064,87.93186   L 6.649992,87.953587   L 6.726054,87.975315   L 6.802116,88.007906   L 6.878178,88.040498   L 6.95424,88.073089   L 7.019436,88.116545   L 7.149828,88.214319   L 7.258488,88.333821   L 7.356282,88.453323   L 7.44321,88.594553   L 8.877522,88.594553   L 8.823192,88.38814   L 8.74713,88.181728   L 8.649336,87.997043   L 8.551542,87.812357   L 8.432016,87.638536   L 8.301624,87.486442   L 8.160366,87.334349   L 8.008242,87.203983   L 7.845252,87.084481   L 7.671396,86.975842   L 7.486674,86.888932   L 7.301952,86.812885   L 7.106364,86.758566   L 6.89991,86.71511   L 6.693456,86.682519   L 6.487002,86.671655   L 6.334878,86.682519   L 6.19362,86.693383   L 6.063228,86.704246   L 5.92197,86.725974   L 5.791578,86.758566   L 5.661186,86.791157   L 5.54166,86.834612   L 5.411268,86.878068   L 5.291742,86.932387   L 5.172216,86.986706   L 5.063556,87.051889   L 4.954896,87.117072   L 4.846236,87.193119   L 4.748442,87.269166   L 4.650648,87.356076   L 4.56372,87.442987   L 4.476792,87.540762   L 4.389864,87.638536   L 4.313802,87.736311   L 4.23774,87.834085   L 4.172544,87.942723   L 4.107348,88.062226   L 4.053018,88.181728   L 3.998688,88.30123   L 3.955224,88.420732   L 3.91176,88.551098   L 3.879162,88.6706   L 3.846564,88.81183   L 3.824832,88.942196   L 3.8031,89.083426   L 3.8031,89.224656   L 3.792234,89.365885   L 3.792234,91.766792   L 3.8031,91.940614   L 3.8031,92.103571   L 3.824832,92.255665   L 3.846564,92.396895   L 3.868296,92.538124   L 3.900894,92.66849   L 3.944358,92.787993   L 3.987822,92.907495   L 4.085616,93.113908   L 4.194276,93.32032   L 4.324668,93.505006   L 4.465926,93.678827   L 4.541988,93.787465   L 4.628916,93.88524   L 4.715844,93.97215   L 4.824504,94.048197   L 4.922298,94.11338   L 5.041824,94.178563   L 5.16135,94.232882   L 5.280876,94.276338   L 5.411268,94.319793   L 5.54166,94.363248   L 5.672052,94.384976   L 5.81331,94.406704   L 6.095826,94.439295   L 6.389208,94.450159   L 6.5196,94.450159   L 6.649992,94.439295   L 6.780384,94.417567   L 6.910776,94.406704   L 7.030302,94.374112   L 7.160694,94.341521   L 7.28022,94.308929   L 7.399746,94.265474   L 7.508406,94.211155   L 7.627932,94.156835   L 7.736592,94.102516   L 7.834386,94.037333   L 7.943046,93.97215   L 8.04084,93.896104   L 8.127768,93.820057   L 8.225562,93.74401   L 8.301624,93.657099   L 8.388552,93.570189   L 8.464614,93.472414   L 8.540676,93.37464   L 8.605872,93.276865   L 8.671068,93.168227   L 8.725398,93.059588   L 8.779728,92.95095   L 8.823192,92.842312   L 8.866656,92.72281   L 8.899254,92.603307   L 8.920986,92.472941   L 8.942718,92.353439   L 8.96445,92.223073   L 8.975316,92.092707   L 8.975316,91.951478   L 8.975316,91.821112   L 8.96445,91.690746   L 8.953584,91.56038   L 8.931852,91.430014   L 8.899254,91.310511   L 8.866656,91.191009   L 8.834058,91.071507   L 8.790594,90.952005   L 8.74713,90.843367   L 8.6928,90.734728   L 8.63847,90.636954   L 8.573274,90.528315   L 8.442882,90.34363   L 8.290758,90.169809   L 8.127768,90.006852   L 7.953912,89.865622   L 7.758324,89.74612   L 7.562736,89.648345   L 7.454076,89.60489   L 7.345416,89.561434   L 7.236756,89.528843   L 7.128096,89.507115   L 7.019436,89.485388   L 6.89991,89.474524   L 6.79125,89.46366   L 6.671724,89.46366   L 6.46527,89.46366   L 6.258816,89.496251   L 6.063228,89.539707   L 5.878506,89.594026   L 5.70465,89.659209   L 5.54166,89.74612   L 5.37867,89.83303   L 5.237412,89.941669  z "
     id="path27" />
  <path
     style="fill:#1f1a17;fill-rule:evenodd;fill-opacity:1;stroke:none;"
     d="  M 10.224906,94.352384   L 11.474496,94.352384   L 11.474496,93.200818   L 10.224906,93.103044   L 10.224906,94.352384  z "
     id="path28" />
  <path
     style="fill:#1f1a17;fill-rule:evenodd;fill-opacity:1;stroke:none;"
     d="  M 12.908808,94.352384   L 17.809374,94.352384   L 17.809374,93.103044   L 14.734296,93.103044   L 17.037888,90.897686   L 17.179146,90.723864   L 17.309538,90.539179   L 17.418198,90.354494   L 17.515992,90.158945   L 17.559456,90.050307   L 17.60292,89.952532   L 17.635518,89.843894   L 17.65725,89.735256   L 17.678982,89.626617   L 17.700714,89.507115   L 17.71158,89.387613   L 17.71158,89.268111   L 17.71158,89.137745   L 17.700714,88.996515   L 17.678982,88.866149   L 17.65725,88.746647   L 17.635518,88.616281   L 17.592054,88.496779   L 17.559456,88.377277   L 17.515992,88.257774   L 17.461662,88.138272   L 17.407332,88.029634   L 17.342136,87.920996   L 17.27694,87.812357   L 17.200878,87.714583   L 17.124816,87.616808   L 17.048754,87.519034   L 16.972692,87.432123   L 16.874898,87.345213   L 16.78797,87.269166   L 16.690176,87.193119   L 16.592382,87.117072   L 16.494588,87.051889   L 16.385928,86.986706   L 16.277268,86.932387   L 16.168608,86.878068   L 16.059948,86.834612   L 15.940422,86.791157   L 15.831762,86.758566   L 15.712236,86.725974   L 15.59271,86.704246   L 15.462318,86.693383   L 15.342792,86.682519   L 15.2124,86.671655   L 15.082008,86.682519   L 14.951616,86.693383   L 14.821224,86.71511   L 14.690832,86.736838   L 14.571306,86.769429   L 14.45178,86.812885   L 14.332254,86.85634   L 14.223594,86.910659   L 14.104068,86.964978   L 13.995408,87.030161   L 13.897614,87.095344   L 13.788954,87.171391   L 13.69116,87.247438   L 13.604232,87.334349   L 13.517304,87.421259   L 13.430376,87.519034   L 13.343448,87.616808   L 13.267386,87.714583   L 13.20219,87.812357   L 13.126128,87.920996   L 13.071798,88.029634   L 13.006602,88.149136   L 12.952272,88.257774   L 12.908808,88.377277   L 12.865344,88.496779   L 12.82188,88.616281   L 12.800148,88.735783   L 12.76755,88.866149   L 12.745818,88.985651   L 12.734952,89.116017   L 12.724086,89.235519   L 12.724086,89.365885   L 14.060604,89.365885   L 14.049738,89.224656   L 14.060604,89.083426   L 14.082336,88.942196   L 14.114934,88.81183   L 14.158398,88.692328   L 14.212728,88.572826   L 14.277924,88.464187   L 14.353986,88.355549   L 14.440914,88.257774   L 14.527842,88.181728   L 14.636502,88.105681   L 14.734296,88.040498   L 14.853822,87.997043   L 14.973348,87.953587   L 15.092874,87.93186   L 15.2124,87.920996   L 15.32106,87.93186   L 15.42972,87.953587   L 15.53838,87.986179   L 15.636174,88.029634   L 15.733968,88.073089   L 15.831762,88.138272   L 15.91869,88.214319   L 16.005618,88.290366   L 16.08168,88.38814   L 16.157742,88.485915   L 16.212072,88.583689   L 16.266402,88.692328   L 16.309866,88.81183   L 16.342464,88.920468   L 16.364196,89.050834   L 16.364196,89.170336   L 16.364196,89.278975   L 16.331598,89.387613   L 16.288134,89.496251   L 16.233804,89.60489   L 16.168608,89.713528   L 16.08168,89.822166   L 15.994752,89.930805   L 15.886092,90.039443   L 12.908808,93.103044   L 12.908808,94.352384  z "
     id="path29" />
  <path
     style="fill:#1f1a17;fill-rule:evenodd;fill-opacity:1;stroke:none;"
     d="  M 21.362556,94.450159   L 21.46035,94.450159   L 21.590742,94.450159   L 21.721134,94.439295   L 21.851526,94.417567   L 21.981918,94.406704   L 22.101444,94.374112   L 22.231836,94.341521   L 22.351362,94.308929   L 22.470888,94.265474   L 22.579548,94.211155   L 22.699074,94.167699   L 22.807734,94.102516   L 22.905528,94.048197   L 23.014188,93.983014   L 23.111982,93.906967   L 23.19891,93.830921   L 23.296704,93.754874   L 23.372766,93.667963   L 23.459694,93.581052   L 23.535756,93.494142   L 23.611818,93.396367   L 23.677014,93.298593   L 23.731344,93.200818   L 23.79654,93.103044   L 23.840004,92.994405   L 23.894334,92.885767   L 23.926932,92.766265   L 23.970396,92.657627   L 23.992128,92.538124   L 24.01386,92.418622   L 24.035592,92.29912   L 24.046458,92.179618   L 24.046458,92.049252   L 24.046458,89.268111   L 24.035592,88.985651   L 24.002994,88.724919   L 23.981262,88.605417   L 23.95953,88.475051   L 23.916066,88.366413   L 23.883468,88.246911   L 23.829138,88.138272   L 23.774808,88.029634   L 23.709612,87.920996   L 23.644416,87.823221   L 23.568354,87.725447   L 23.481426,87.627672   L 23.383632,87.540762   L 23.274972,87.442987   L 23.09025,87.269166   L 22.894662,87.117072   L 22.796868,87.051889   L 22.688208,86.986706   L 22.590414,86.932387   L 22.470888,86.878068   L 22.362228,86.834612   L 22.242702,86.791157   L 22.123176,86.758566   L 21.992784,86.725974   L 21.862392,86.704246   L 21.732,86.693383   L 21.601608,86.682519   L 21.46035,86.671655   L 21.308226,86.682519   L 21.156102,86.693383   L 21.014844,86.71511   L 20.873586,86.736838   L 20.743194,86.780293   L 20.612802,86.812885   L 20.48241,86.867204   L 20.362884,86.921523   L 20.243358,86.975842   L 20.134698,87.041025   L 20.026038,87.117072   L 19.917378,87.193119   L 19.819584,87.269166   L 19.72179,87.356076   L 19.634862,87.442987   L 19.547934,87.540762   L 19.471872,87.638536   L 19.39581,87.736311   L 19.319748,87.834085   L 19.254552,87.942723   L 19.135026,88.16   L 19.037232,88.377277   L 18.96117,88.605417   L 18.90684,88.822694   L 18.885108,88.942196   L 18.874242,89.050834   L 18.863376,89.159473   L 18.863376,89.268111   L 18.863376,91.951478   L 18.863376,92.092707   L 18.874242,92.233937   L 18.895974,92.364303   L 18.917706,92.494669   L 18.939438,92.625035   L 18.982902,92.744537   L 19.0155,92.864039   L 19.06983,92.972678   L 19.12416,93.081316   L 19.17849,93.189954   L 19.243686,93.298593   L 19.308882,93.396367   L 19.384944,93.494142   L 19.461006,93.591916   L 19.547934,93.689691   L 19.634862,93.776601   L 19.72179,93.88524   L 19.819584,93.97215   L 19.906512,94.059061   L 20.015172,94.124244   L 20.112966,94.189427   L 20.21076,94.243746   L 20.31942,94.287201   L 20.42808,94.330657   L 20.53674,94.363248   L 20.6454,94.384976   L 20.75406,94.406704   L 20.873586,94.428431   L 21.112638,94.439295   L 21.362556,94.450159  z "
     id="path30" />
  <path
     style="fill:#abaaa9;fill-rule:evenodd;fill-opacity:1;stroke:none;"
     d="  M 6.389208,93.298593   L 6.258816,93.298593   L 6.13929,93.276865   L 6.019764,93.255137   L 5.911104,93.211682   L 5.802444,93.168227   L 5.693784,93.103044   L 5.59599,93.037861   L 5.509062,92.961814   L 5.433,92.874903   L 5.356938,92.787993   L 5.291742,92.679354   L 5.237412,92.570716   L 5.193948,92.451214   L 5.16135,92.320848   L 5.139618,92.190482   L 5.139618,92.049252   L 5.139618,91.897158   L 5.16135,91.745065   L 5.193948,91.603835   L 5.237412,91.473469   L 5.291742,91.353967   L 5.356938,91.245328   L 5.433,91.147554   L 5.509062,91.049779   L 5.59599,90.973733   L 5.693784,90.90855   L 5.802444,90.843367   L 5.911104,90.799911   L 6.019764,90.756456   L 6.13929,90.734728   L 6.258816,90.713001   L 6.389208,90.702137   L 6.508734,90.713001   L 6.62826,90.723864   L 6.747786,90.756456   L 6.867312,90.789047   L 6.975972,90.843367   L 7.073766,90.897686   L 7.17156,90.962869   L 7.258488,91.038916   L 7.345416,91.125826   L 7.421478,91.223601   L 7.475808,91.321375   L 7.530138,91.440877   L 7.573602,91.549516   L 7.6062,91.679882   L 7.627932,91.810248   L 7.638798,91.951478   L 7.627932,92.114435   L 7.6062,92.255665   L 7.573602,92.396895   L 7.530138,92.527261   L 7.475808,92.646763   L 7.421478,92.755401   L 7.345416,92.864039   L 7.258488,92.95095   L 7.17156,93.026997   L 7.073766,93.103044   L 6.975972,93.157363   L 6.867312,93.211682   L 6.747786,93.244274   L 6.62826,93.276865   L 6.508734,93.298593   L 6.389208,93.298593  z "
     id="path31" />
  <path
     style="fill:#abaaa9;fill-rule:evenodd;fill-opacity:1;stroke:none;"
     d="  M 21.46035,93.298593   L 21.329958,93.298593   L 21.210432,93.276865   L 21.090906,93.255137   L 20.97138,93.211682   L 20.86272,93.168227   L 20.764926,93.113908   L 20.667132,93.048725   L 20.580204,92.972678   L 20.493276,92.896631   L 20.42808,92.80972   L 20.362884,92.711946   L 20.308554,92.614171   L 20.26509,92.505533   L 20.232492,92.386031   L 20.21076,92.266529   L 20.21076,92.147026   L 20.21076,89.268111   L 20.21076,89.126881   L 20.232492,88.985651   L 20.26509,88.855285   L 20.308554,88.735783   L 20.362884,88.616281   L 20.42808,88.507643   L 20.493276,88.399004   L 20.580204,88.312094   L 20.667132,88.225183   L 20.764926,88.149136   L 20.86272,88.083953   L 20.97138,88.029634   L 21.090906,87.986179   L 21.210432,87.953587   L 21.329958,87.93186   L 21.46035,87.920996   L 21.579876,87.93186   L 21.699402,87.953587   L 21.818928,87.986179   L 21.938454,88.029634   L 22.047114,88.073089   L 22.144908,88.138272   L 22.242702,88.214319   L 22.32963,88.290366   L 22.416558,88.38814   L 22.481754,88.485915   L 22.54695,88.583689   L 22.60128,88.692328   L 22.644744,88.81183   L 22.677342,88.920468   L 22.699074,89.050834   L 22.699074,89.170336   L 22.699074,92.147026   L 22.699074,92.255665   L 22.677342,92.364303   L 22.644744,92.462078   L 22.60128,92.570716   L 22.54695,92.66849   L 22.481754,92.766265   L 22.416558,92.853176   L 22.32963,92.940086   L 22.242702,93.016133   L 22.144908,93.081316   L 22.047114,93.146499   L 21.938454,93.200818   L 21.818928,93.244274   L 21.699402,93.276865   L 21.579876,93.287729   L 21.46035,93.298593  z "
     id="path32" />
</svg>
